<svg xmlns="http://www.w3.org/2000/svg" viewBox="451 378 755 365" width="755" height="365">
  <path d="M515.8,619.5 C536.0,614.7 550.5,599.7 551.8,582.2 C552.4,573.1 550.9,569.0 545.4,564.1 C540.4,559.7 535.8,558.0 516.1,552.9 C496.8,548.0 495.0,546.9 495.0,539.9 C495.0,535.2 498.4,530.5 503.8,527.8 C510.0,524.8 525.0,524.4 529.3,527.3 C533.1,529.7 536.0,534.8 536.0,538.8 L536.0,542.0 L546.4,542.0 C558.1,542.0 558.0,542.1 558.0,534.1 C558.0,522.9 551.1,513.5 539.4,509.0 C530.7,505.5 513.6,505.5 503.1,508.9 C494.4,511.8 485.5,518.0 480.5,524.7 C473.6,534.1 471.0,549.1 474.9,557.7 C478.2,564.9 484.6,568.0 508.8,574.0 C516.1,575.8 523.5,578.2 525.3,579.4 C531.9,583.8 529.1,595.4 520.4,599.5 C511.3,603.8 496.1,603.9 489.8,599.7 C485.8,596.9 484.0,593.7 484.0,588.8 L484.0,585.0 L473.1,585.0 L462.2,585.0 L461.6,588.1 C460.7,592.8 460.9,595.1 462.5,600.8 C465.2,609.8 472.8,616.4 484.0,619.4 C491.2,621.3 507.8,621.4 515.8,619.5 Z M619.2,615.2 C636.0,608.5 649.6,591.4 656.6,568.5 C659.0,560.7 659.4,557.7 659.4,546.0 C659.5,533.2 659.4,532.2 656.7,526.8 C655.1,523.6 651.9,519.3 649.3,517.0 C641.7,510.3 638.4,509.8 605.9,509.2 L577.3,508.8 L575.1,519.2 C572.3,532.1 564.2,570.4 558.9,595.5 C556.7,606.0 554.7,615.3 554.4,616.3 C553.8,618.1 555.2,618.1 583.7,617.8 C612.0,617.5 613.8,617.3 619.2,615.2 Z M580.0,599.5 C580.0,599.2 581.3,592.7 583.0,585.2 C584.6,577.7 587.5,564.1 589.4,555.0 C591.3,545.9 593.4,536.1 594.0,533.1 L595.2,527.8 L610.4,528.1 C623.4,528.5 626.0,528.8 629.0,530.5 C636.6,535.0 638.6,544.8 635.2,561.4 C631.5,579.2 623.8,591.5 613.2,596.7 C608.0,599.2 606.4,599.5 593.8,599.8 C586.2,600.1 580.0,599.9 580.0,599.5 Z" fill="#3B7DD8" fill-rule="evenodd"/>
  <path d="M1048.9,637.5 C1100.9,564.5 1103.4,561.0 1103.8,561.4 C1104.2,561.8 1102.3,571.2 1096.1,600.3 L1093.2,614.0 L1134.8,613.8 L1176.5,613.5 L1178.6,604.0 L1180.6,594.5 L1150.3,594.2 L1120.0,594.0 L1120.5,591.7 C1122.5,582.8 1126.0,566.7 1126.0,566.4 C1126.0,566.2 1138.0,565.9 1152.7,565.8 L1179.4,565.5 L1181.2,557.0 C1182.1,552.3 1182.9,548.2 1183.0,547.8 C1183.0,547.3 1171.0,547.0 1156.4,547.0 C1131.6,547.0 1129.9,546.9 1130.3,545.2 C1130.6,544.3 1131.6,539.9 1132.5,535.5 C1133.4,531.1 1134.4,526.7 1134.6,525.8 C1135.1,524.1 1137.4,524.0 1164.0,524.0 L1192.9,524.0 L1194.0,518.2 C1194.6,515.1 1195.6,510.9 1196.1,509.0 C1196.6,507.1 1197.0,505.2 1197.0,504.8 C1197.0,504.3 1178.9,504.0 1156.7,504.0 L1116.4,504.0 L1113.2,519.7 C1111.4,528.3 1109.9,535.4 1109.7,535.5 C1109.1,536.0 1055.5,548.8 1055.2,548.5 C1055.0,548.4 1056.5,545.4 1058.4,541.9 C1060.9,537.2 1133.0,401.4 1139.1,389.8 C1141.9,384.6 1140.0,386.9 1081.4,462.5 C1066.0,482.3 1043.6,511.2 1031.6,526.7 C1019.5,542.3 1009.5,554.9 1009.4,554.7 C1009.2,554.5 1015.3,525.4 1018.5,511.2 C1019.0,509.0 1018.9,509.0 1007.6,509.0 L996.2,509.0 L994.6,516.2 C993.8,520.2 990.8,534.2 988.0,547.2 C985.3,560.3 980.8,581.6 978.0,594.5 C975.2,607.4 973.0,618.2 973.0,618.5 C973.0,618.8 978.1,619.0 984.4,619.0 L995.7,619.0 L998.5,605.1 L1001.2,591.3 L1012.9,588.0 C1019.3,586.2 1030.3,583.0 1037.4,580.9 C1044.5,578.8 1050.5,577.2 1050.8,577.4 C1051.0,577.7 1050.0,580.5 1048.5,583.7 C1047.0,586.9 1033.7,616.0 1018.8,648.5 C1003.9,681.0 989.1,713.3 985.9,720.4 C982.7,727.4 980.0,733.5 980.0,733.8 C980.0,734.3 987.2,724.2 1048.9,637.5 Z M713.3,619.5 C731.8,614.7 745.0,601.5 748.1,584.6 C750.1,573.7 746.1,565.1 736.9,560.4 C734.2,559.1 724.2,555.9 714.7,553.4 C693.2,547.8 690.1,545.8 691.4,538.7 C693.0,530.2 701.2,525.5 714.0,525.6 C725.5,525.6 730.5,529.2 731.7,538.0 L732.3,542.0 L743.1,542.0 L754.0,542.0 L754.0,535.4 C754.0,527.1 752.5,522.1 748.8,517.6 C742.6,510.1 732.0,506.0 718.3,506.0 C702.9,506.0 690.8,510.3 681.5,519.1 C673.6,526.6 669.8,534.8 669.2,545.4 C668.7,554.1 670.3,559.3 674.7,563.2 C678.1,566.3 687.9,570.0 702.0,573.4 C723.0,578.6 725.7,580.4 724.7,588.4 C724.3,591.5 723.2,593.4 720.2,596.2 C715.3,600.7 709.8,602.4 699.5,602.4 C686.5,602.3 680.0,597.5 680.0,588.0 L680.0,585.0 L669.1,585.0 L658.2,585.0 L657.5,589.0 C655.1,603.0 665.1,616.2 680.7,619.9 C687.1,621.4 707.0,621.2 713.3,619.5 Z M590.2,618.3 C583.5,618.1 572.5,618.1 565.8,618.3 C559.0,618.4 564.5,618.6 578.0,618.6 C591.5,618.6 597.0,618.4 590.2,618.3 Z M797.0,618.5 C797.0,618.3 799.0,608.5 801.5,596.8 C804.0,585.1 808.1,565.8 810.6,554.0 C813.1,542.2 815.4,531.7 815.6,530.8 C816.1,529.2 817.8,529.0 832.4,529.0 L848.7,529.0 L850.4,520.8 C851.4,516.2 852.4,511.7 852.6,510.8 C853.1,509.1 850.5,509.0 808.6,509.0 L764.0,509.0 L763.5,511.2 C762.7,514.7 760.0,528.1 760.0,528.6 C760.0,528.8 767.2,529.0 776.0,529.0 C789.6,529.0 792.0,529.2 792.0,530.5 C792.0,532.0 781.9,580.4 776.5,604.7 C775.1,610.9 774.0,616.6 774.0,617.5 C774.0,618.8 775.8,619.0 785.5,619.0 C791.8,619.0 797.0,618.8 797.0,618.5 Z M863.1,597.8 L867.6,576.5 L884.2,576.5 C899.1,576.5 901.0,576.7 902.9,578.4 C906.1,581.3 906.3,585.6 904.1,597.4 C902.9,603.3 902.0,610.6 902.0,613.6 L902.0,619.0 L915.0,619.0 C929.2,619.0 929.4,618.9 926.5,613.4 C924.9,610.3 924.9,610.2 928.1,593.0 C930.7,579.2 930.1,574.8 924.9,569.8 L921.1,566.1 L925.5,564.0 C930.9,561.4 936.1,555.6 939.8,548.0 C942.1,543.3 942.5,541.2 942.5,533.9 C942.5,526.2 942.2,524.9 939.5,520.4 C937.1,516.6 935.2,514.9 930.5,512.5 L924.5,509.5 L891.8,509.2 C873.7,509.0 859.0,509.2 859.0,509.7 C859.0,510.1 856.3,523.3 852.9,539.0 C849.6,554.7 845.8,572.7 844.5,579.0 C840.7,596.9 837.0,614.3 836.5,616.8 C836.0,619.0 836.1,619.0 847.3,619.0 L858.6,619.0 L863.1,597.8 Z M960.0,613.2 C961.2,607.3 969.9,566.6 977.5,530.7 C980.0,519.2 982.0,509.7 982.0,509.4 C982.0,509.2 976.9,509.0 970.6,509.0 L959.2,509.0 L958.1,513.8 C957.5,516.4 954.7,529.3 952.0,542.5 C949.2,555.7 944.7,577.1 941.9,590.0 C939.2,602.9 936.7,614.7 936.4,616.2 L935.8,619.0 L947.3,619.0 L958.9,619.0 L960.0,613.2 Z M525.1,596.2 C526.4,594.7 526.3,594.6 524.8,595.9 C523.8,596.6 523.0,597.4 523.0,597.6 C523.0,598.4 523.8,597.9 525.1,596.2 Z M872.0,556.0 C872.0,555.1 875.4,539.3 877.5,530.2 L878.1,527.8 L894.8,528.2 C916.6,528.7 919.0,529.8 919.0,539.3 C918.9,545.0 916.0,551.2 911.9,554.1 C908.7,556.4 907.7,556.5 890.2,556.8 C877.2,557.0 872.0,556.8 872.0,556.0 Z M553.0,517.7 C553.0,517.5 552.0,516.5 550.8,515.4 L548.5,513.5 L550.4,515.8 C552.2,517.9 553.0,518.5 553.0,517.7 Z" fill="#1a1a1a" fill-rule="evenodd"/>
</svg>